# xmcd
#
# Track frame offsets:
#	150
#	22969
#	43142
#	59375
#	77886
#	95470
#	107218
#	125894
#	142024
#	158788
#	173163
#	188086
#	210923
#
# Disc length: 3034 seconds
#
# Revision: 1
# Processed by: cddbd v1.5.2PL0 Copyright (c) Steve Scherf et al.
# Submitted via: audiograbber 1.83.01
#
DISCID=b30bd80d
DTITLE=transsexdisco - ultrachemia
DYEAR=2012
DGENRE=
TTITLE0=Betonowy Swiat
TTITLE1=Czlowiekiem Jestem
TTITLE2=Ja Cie Znam
TTITLE3=Swiatowa Rewolucja
TTITLE4=Zapraszam Do Tanca
TTITLE5=Prosty Chlopak
TTITLE6=Ja
TTITLE7=Piesn O Zazdrosci
TTITLE8=Dreszcze
TTITLE9=Jak Szybko Leca Lata
TTITLE10=Kiedy Slonce Swieci
TTITLE11=Ten Song
TTITLE12=Od Wujka Darka
EXTD=
EXTT0=
EXTT1=
EXTT2=
EXTT3=
EXTT4=
EXTT5=
EXTT6=
EXTT7=
EXTT8=
EXTT9=
EXTT10=
EXTT11=
EXTT12=
PLAYORDER=
